<svg width="32" height="32" viewBox="0 0 32 32" fill="none" xmlns="http://www.w3.org/2000/svg">
<path d="M15.0187 24.8C15.225 25.1187 15.5875 25.3312 16 25.3312C16.4125 25.3312 16.775 25.1187 16.9875 24.8L23.875 14.1625C24.8 12.7313 25.3375 11.1563 25.3375 9.33125C25.3312 4.05625 21.1875 0 16 0C10.8125 0 6.66874 4.05625 6.66874 9.33125C6.66874 11.1563 7.20624 12.7313 8.13124 14.1625L15.0187 24.8ZM16 4C18.9437 4 21.3312 6.3875 21.3312 9.33125C21.3312 12.275 18.9437 14.6625 16 14.6625C13.0562 14.6625 10.6687 12.275 10.6687 9.33125C10.6687 6.3875 13.0562 4 16 4ZM22.8375 20.2188L16 29.3312L9.16249 20.2188C6.82499 21.4438 5.33124 23.275 5.33124 25.3312C5.33124 29.0125 10.1062 32 16 32C21.8937 32 26.6687 29.0125 26.6687 25.3312C26.6687 23.275 25.175 21.4438 22.8375 20.2188Z" fill="black"/>
</svg>
