<svg width="32" height="32" viewBox="0 0 32 32" fill="none" xmlns="http://www.w3.org/2000/svg">
<path d="M9.33332 2.6665C11.7067 2.6665 12.8933 5.5465 11.2267 7.2265C9.54666 8.89317 6.66666 7.7065 6.66666 5.33317C6.66666 4.62593 6.94761 3.94765 7.44771 3.44755C7.9478 2.94746 8.62608 2.6665 9.33332 2.6665ZM7.33332 9.33317H11.3333C12.0406 9.33317 12.7188 9.61412 13.2189 10.1142C13.719 10.6143 14 11.2926 14 11.9998V19.3332H12V29.3332H6.66666V19.3332H4.66666V11.9998C4.66666 11.2926 4.94761 10.6143 5.4477 10.1142C5.9478 9.61412 6.62608 9.33317 7.33332 9.33317ZM28 10.6665H20V13.3332H28M28 14.6665H24V17.3332H28M28 2.6665H20V5.33317H28M28 6.6665H24V9.33317H28M28 18.6665H20V21.3332H28M28 26.6665H20V29.3332H28M28 22.6665H24V25.3332H28" fill="black"/>
</svg>
