<svg width="32" height="32" viewBox="0 0 32 32" fill="none" xmlns="http://www.w3.org/2000/svg">
<path fill-rule="evenodd" clip-rule="evenodd" d="M11.552 9.4071L10.4728 8.3275C10.1352 7.98994 9.67737 7.80029 9.19997 7.80029C8.72258 7.80029 8.26474 7.98994 7.92717 8.3275C7.58961 8.66507 7.39996 9.12291 7.39996 9.6003C7.39996 10.0777 7.58961 10.5355 7.92717 10.8731L11.0032 13.9491C11.2568 14.2035 11.3994 14.5479 11.4 14.9071V25.2003C11.4 25.4367 11.4465 25.6707 11.537 25.8891C11.6274 26.1075 11.76 26.306 11.9272 26.4731C12.0943 26.6402 12.2928 26.7728 12.5111 26.8633C12.7295 26.9537 12.9636 27.0003 13.2 27.0003C13.4364 27.0003 13.6704 26.9537 13.8888 26.8633C14.1072 26.7728 14.3056 26.6402 14.4728 26.4731C14.6399 26.306 14.7725 26.1075 14.863 25.8891C14.9534 25.6707 15 25.4367 15 25.2003V20.4003C15 20.3473 15.021 20.2964 15.0586 20.2589C15.0961 20.2214 15.1469 20.2003 15.2 20.2003C15.253 20.2003 15.3039 20.2214 15.3414 20.2589C15.3789 20.2964 15.4 20.3473 15.4 20.4003V25.2003C15.4 25.6777 15.5896 26.1355 15.9272 26.4731C16.2647 26.8107 16.7226 27.0003 17.2 27.0003C17.6774 27.0003 18.1352 26.8107 18.4728 26.4731C18.8103 26.1355 19 25.6777 19 25.2003V14.9071C19 14.5479 19.1428 14.2031 19.3968 13.9495L22.4728 10.8731C22.8103 10.5355 23 10.0777 23 9.6003C23 9.12291 22.8103 8.66507 22.4728 8.3275C22.1352 7.98994 21.6774 7.80029 21.2 7.80029C20.7226 7.80029 20.2647 7.98994 19.9272 8.3275L18.848 9.4071L18.8332 9.4591L18.6776 9.9899C18.4576 10.7419 17.9997 11.4023 17.3727 11.8722C16.7457 12.342 15.9833 12.596 15.1998 12.596C14.4163 12.596 13.6538 12.342 13.0268 11.8722C12.3998 11.4023 11.942 10.7419 11.722 9.9899L11.5672 9.4591L11.552 9.4071Z" fill="black"/>
<path d="M13.3248 6.07374C13.8195 5.67447 14.4288 5.44358 15.0639 5.4147C15.699 5.38582 16.3267 5.56046 16.8557 5.91318C17.3846 6.2659 17.7872 6.77827 18.0046 7.37568C18.2221 7.97309 18.2432 8.62432 18.0648 9.23454L17.91 9.76534C17.7388 10.3515 17.3821 10.8664 16.8935 11.2328C16.4049 11.5991 15.8107 11.7971 15.2 11.7971C14.5893 11.7971 13.995 11.5991 13.5064 11.2328C13.0178 10.8664 12.6612 10.3515 12.49 9.76534L12.3348 9.23454C12.1691 8.66881 12.1748 8.0667 12.3509 7.50417C12.5271 6.94164 12.866 6.44389 13.3248 6.07374Z" fill="black"/>
</svg>
