<svg width="32" height="32" viewBox="0 0 32 32" fill="none" xmlns="http://www.w3.org/2000/svg">
<path d="M7.99997 21.3335C7.26664 21.3335 6.63909 21.0726 6.11731 20.5508C5.59553 20.0291 5.3342 19.4011 5.33331 18.6668C5.33242 17.9326 5.59375 17.3051 6.11731 16.7842C6.64086 16.2633 7.26842 16.0019 7.99997 16.0002C8.73153 15.9984 9.35953 16.2597 9.88397 16.7842C10.4084 17.3086 10.6693 17.9362 10.6666 18.6668C10.664 19.3975 10.4031 20.0255 9.88397 20.5508C9.36486 21.0762 8.73686 21.3371 7.99997 21.3335ZM24 21.3335C23.2666 21.3335 22.6391 21.0726 22.1173 20.5508C21.5955 20.0291 21.3342 19.4011 21.3333 18.6668C21.3324 17.9326 21.5938 17.3051 22.1173 16.7842C22.6409 16.2633 23.2684 16.0019 24 16.0002C24.7315 15.9984 25.3595 16.2597 25.884 16.7842C26.4084 17.3086 26.6693 17.9362 26.6666 18.6668C26.664 19.3975 26.4031 20.0255 25.884 20.5508C25.3649 21.0762 24.7369 21.3371 24 21.3335ZM16 20.0002C15.0666 20.0002 14.2778 19.6779 13.6333 19.0335C12.9889 18.3891 12.6666 17.6002 12.6666 16.6668C12.6666 15.7335 12.9889 14.9446 13.6333 14.3002C14.2778 13.6557 15.0666 13.3335 16 13.3335C16.9333 13.3335 17.7222 13.6557 18.3666 14.3002C19.0111 14.9446 19.3333 15.7335 19.3333 16.6668C19.3333 17.6002 19.0111 18.3891 18.3666 19.0335C17.7222 19.6779 16.9333 20.0002 16 20.0002ZM9.46664 28.0002C9.6222 27.2224 9.89997 26.5166 10.3 25.8828C10.7 25.2491 11.1889 24.6882 11.7666 24.2002C12.3444 23.7122 12.9946 23.3344 13.7173 23.0668C14.44 22.7993 15.2009 22.6659 16 22.6668C16.7991 22.6677 17.5604 22.8011 18.284 23.0668C19.0075 23.3326 19.6573 23.7104 20.2333 24.2002C20.8093 24.6899 21.2982 25.2513 21.7 25.8842C22.1018 26.5171 22.3795 27.2224 22.5333 28.0002H9.46664ZM4.36664 28.0002C3.89997 28.0002 3.49997 27.8446 3.16664 27.5335C2.83331 27.2224 2.66664 26.8668 2.66664 26.4668C2.66664 25.6002 3.19464 24.7499 4.25064 23.9162C5.30664 23.0824 6.52309 22.6659 7.89998 22.6668C8.27775 22.6668 8.64442 22.7002 8.99997 22.7668C9.35553 22.8335 9.69997 22.9335 10.0333 23.0668C9.36664 23.7113 8.81109 24.4504 8.36664 25.2842C7.9222 26.1179 7.6222 27.0233 7.46664 28.0002H4.36664ZM24.5333 28.0002C24.3778 27.0224 24.0778 26.1171 23.6333 25.2842C23.1889 24.4513 22.6333 23.7122 21.9666 23.0668C22.3 22.9335 22.6391 22.8335 22.984 22.7668C23.3289 22.7002 23.6898 22.6668 24.0666 22.6668C25.4444 22.6668 26.6666 23.0837 27.7333 23.9175C28.8 24.7513 29.3333 25.6011 29.3333 26.4668C29.3333 26.8891 29.1666 27.2504 28.8333 27.5508C28.5 27.8513 28.0889 28.0011 27.6 28.0002H24.5333ZM2.13331 14.9335C1.91109 14.6224 1.8222 14.2891 1.86664 13.9335C1.91109 13.5779 2.08886 13.2891 2.39997 13.0668L14.3666 3.90016C14.8555 3.52238 15.4 3.3335 16 3.3335C16.6 3.3335 17.1444 3.52238 17.6333 3.90016L21.3333 6.7335V6.00016C21.3333 5.44461 21.528 4.97261 21.9173 4.58416C22.3066 4.19572 22.7786 4.00105 23.3333 4.00016C23.888 3.99927 24.3604 4.19394 24.7506 4.58416C25.1409 4.97438 25.3351 5.44639 25.3333 6.00016V9.80016L29.6 13.0668C29.8889 13.2891 30.0613 13.5779 30.1173 13.9335C30.1733 14.2891 30.0898 14.6224 29.8666 14.9335C29.6435 15.2446 29.3546 15.4224 29 15.4668C28.6453 15.5113 28.312 15.4224 28 15.2002L16 6.0335L3.99997 15.2002C3.68886 15.4224 3.35553 15.5113 2.99997 15.4668C2.64442 15.4224 2.35553 15.2446 2.13331 14.9335Z" fill="black"/>
</svg>
