<svg width="32" height="32" viewBox="0 0 32 32" fill="none" xmlns="http://www.w3.org/2000/svg">
<path d="M16 2.875C13.1829 2.875 10.875 5.18287 10.875 8C10.875 9.61325 11.6327 11.0585 12.8086 12H8L2 30H30L24 12H19.1914C20.3673 11.0585 21.125 9.61325 21.125 8C21.125 5.18287 18.8171 2.875 16 2.875ZM16 5.125C17.6011 5.125 18.875 6.39887 18.875 8C18.875 9.60113 17.6011 10.875 16 10.875C14.3989 10.875 13.125 9.60113 13.125 8C13.125 6.39887 14.3989 5.125 16 5.125ZM10.8616 17.8094H12.3303V19.8883L14.4474 17.8093H16.1526L13.4099 20.5062L16.4349 23.5046H14.5962L12.3303 21.2616V23.5046H10.8616V17.8094ZM18.3574 19.1369C18.6549 19.1368 18.9169 19.1953 19.1432 19.3123C19.3695 19.4292 19.5768 19.6136 19.7651 19.8654V19.2323H21.1384V23.0736C21.1384 23.7603 20.9209 24.2841 20.486 24.6453C20.0537 25.0089 19.4255 25.1907 18.6015 25.1907C18.3346 25.1907 18.0765 25.1704 17.8271 25.1297C17.572 25.0876 17.3207 25.0251 17.0756 24.9428V23.8784C17.3148 24.0158 17.5488 24.1176 17.7775 24.1837C18.0065 24.2524 18.2367 24.2867 18.4681 24.2867C18.9157 24.2867 19.2437 24.1888 19.4522 23.9929C19.6608 23.7972 19.7651 23.4908 19.7651 23.0737V22.7799C19.577 23.0291 19.3697 23.2122 19.1432 23.3292C18.9169 23.4461 18.655 23.5046 18.3574 23.5047C17.8361 23.5047 17.405 23.3 17.0643 22.8906C16.7235 22.4786 16.5531 21.9547 16.5531 21.3189C16.5531 20.6806 16.7235 20.1579 17.0643 19.7511C17.405 19.3416 17.8361 19.1369 18.3574 19.1369ZM18.8648 20.121C18.5825 20.121 18.3625 20.2253 18.2048 20.4338C18.0471 20.6424 17.9683 20.9375 17.9683 21.3189C17.9683 21.7106 18.0446 22.0081 18.1972 22.2114C18.3498 22.4124 18.5724 22.5129 18.8648 22.5129C19.1496 22.5128 19.3709 22.4085 19.5286 22.2C19.6863 21.9915 19.7651 21.6977 19.7651 21.3189C19.7651 20.9374 19.6862 20.6424 19.5285 20.4339C19.3708 20.2253 19.1496 20.121 18.8647 20.121H18.8648Z" fill="black"/>
</svg>
