<svg width="32" height="32" viewBox="0 0 32 32" fill="none" xmlns="http://www.w3.org/2000/svg">
<path d="M26.6667 10.6668L16 17.3335L5.33335 10.6668V8.00016L16 14.6668L26.6667 8.00016M26.6667 5.3335H5.33335C3.85335 5.3335 2.66669 6.52016 2.66669 8.00016V24.0002C2.66669 24.7074 2.94764 25.3857 3.44774 25.8858C3.94783 26.3859 4.62611 26.6668 5.33335 26.6668H26.6667C27.3739 26.6668 28.0522 26.3859 28.5523 25.8858C29.0524 25.3857 29.3334 24.7074 29.3334 24.0002V8.00016C29.3334 7.29292 29.0524 6.61464 28.5523 6.11454C28.0522 5.61445 27.3739 5.3335 26.6667 5.3335Z" fill="black"/>
</svg>
