<svg width="32" height="32" viewBox="0 0 32 32" fill="none" xmlns="http://www.w3.org/2000/svg">
<path d="M14.423 12.1702C13.5256 12.8361 12.4385 13.197 11.321 13.2002C10.158 13.2002 9.09102 12.8102 8.21802 12.1702C7.46802 12.7952 6.72002 13.6902 6.10802 14.7932C4.68502 17.3562 4.52802 19.9852 5.75802 20.6672C6.30602 20.9792 6.88402 20.7452 7.48002 20.1712C7.36839 20.7896 7.3125 21.4168 7.31302 22.0452C7.31302 24.9832 8.45302 27.3572 9.85602 27.3572C10.702 27.3572 11.121 26.4922 11.322 25.1692C11.522 26.4832 11.942 27.3572 12.782 27.3572C14.179 27.3572 15.328 24.9822 15.328 22.0452C15.328 21.3852 15.266 20.7552 15.16 20.1722C15.76 20.7472 16.336 20.9852 16.886 20.6692C18.113 19.9872 17.954 17.3592 16.532 14.7952C15.922 13.6912 15.172 12.7972 14.422 12.1722L14.423 12.1702ZM11.32 12.2002C11.8821 12.2 12.4387 12.089 12.958 11.8738C13.4772 11.6585 13.949 11.343 14.3464 10.9454C14.7437 10.5477 15.0588 10.0758 15.2738 9.55635C15.4887 9.03694 15.5992 8.48028 15.599 7.91816C15.5988 7.35604 15.4879 6.79946 15.2726 6.2802C15.0573 5.76094 14.7419 5.28917 14.3442 4.89183C13.9466 4.49449 13.4746 4.17935 12.9552 3.96442C12.4358 3.74949 11.8791 3.63896 11.317 3.63916C10.1815 3.63956 9.09264 4.09103 8.28998 4.89424C7.48733 5.69746 7.03663 6.78664 7.03702 7.92216C7.03742 9.05769 7.48889 10.1465 8.29211 10.9492C9.09532 11.7519 10.1845 12.2026 11.32 12.2022V12.2002ZM21.987 17.6702C23.495 17.6702 24.719 16.4462 24.719 14.9362C24.719 13.4262 23.493 12.2002 21.986 12.2002C21.2605 12.2004 20.5647 12.4888 20.0517 13.0018C19.5386 13.5149 19.2503 14.2106 19.25 14.9362C19.2506 15.6617 19.5391 16.3574 20.0524 16.8702C20.5656 17.3831 21.2615 17.6702 21.987 17.6702ZM25.317 19.3272C24.927 18.6222 24.449 18.0502 23.969 17.6502C23.409 18.0602 22.729 18.3102 21.986 18.3102C21.243 18.3102 20.56 18.0602 20.003 17.6502C19.523 18.0502 19.045 18.6222 18.653 19.3272C17.743 20.9652 17.643 22.6452 18.429 23.0812C18.779 23.2812 19.149 23.1312 19.529 22.7652C19.4601 23.1604 19.4253 23.5609 19.425 23.9622C19.425 25.8422 20.153 27.3592 21.05 27.3592C21.59 27.3592 21.86 26.8062 21.988 25.9612C22.116 26.8012 22.384 27.3582 22.922 27.3582C23.815 27.3582 24.549 25.8402 24.549 23.9622C24.549 23.5422 24.509 23.1382 24.441 22.7662C24.824 23.1332 25.193 23.2862 25.545 23.0832C26.327 22.6492 26.225 20.9682 25.317 19.3302V19.3272Z" fill="black"/>
</svg>
