<svg width="32" height="32" viewBox="0 0 32 32" fill="none" xmlns="http://www.w3.org/2000/svg">
<path d="M30.1956 15.3363C28.87 9.3432 26.875 6.14445 23.9156 5.2707C23.2935 5.0882 22.6483 4.99704 22 5.00007C21.1431 5.00007 20.3969 5.20882 19.6075 5.43007C18.6562 5.69695 17.5756 6.00007 16 6.00007C14.4244 6.00007 13.3431 5.69757 12.39 5.4307C11.6 5.20882 10.8544 5.00007 9.99999 5.00007C9.32962 4.99772 8.66219 5.08859 8.01686 5.27007C5.07311 6.14007 3.07936 9.33757 1.73436 15.3326C0.288111 21.7838 0.999986 25.8569 3.73061 26.8019C4.10491 26.9339 4.49874 27.0019 4.89561 27.0032C6.76624 27.0032 8.26624 25.4451 9.29124 24.1694C10.4494 22.7257 11.805 21.9932 16 21.9932C19.7469 21.9932 21.2975 22.5013 22.6369 24.1694C23.4787 25.2182 24.2744 25.9519 25.0681 26.4138C26.1237 27.0276 27.1787 27.1638 28.2031 26.8119C29.8169 26.2613 30.7419 24.8057 30.9531 22.4844C31.1137 20.7044 30.8662 18.3663 30.1956 15.3363ZM13 15.0001H11V17.0001C11 17.2653 10.8946 17.5196 10.7071 17.7072C10.5196 17.8947 10.2652 18.0001 9.99999 18.0001C9.73477 18.0001 9.48042 17.8947 9.29288 17.7072C9.10534 17.5196 8.99999 17.2653 8.99999 17.0001V15.0001H6.99999C6.73477 15.0001 6.48042 14.8947 6.29288 14.7072C6.10534 14.5196 5.99999 14.2653 5.99999 14.0001C5.99999 13.7349 6.10534 13.4805 6.29288 13.293C6.48042 13.1054 6.73477 13.0001 6.99999 13.0001H8.99999V11.0001C8.99999 10.7349 9.10534 10.4805 9.29288 10.293C9.48042 10.1054 9.73477 10.0001 9.99999 10.0001C10.2652 10.0001 10.5196 10.1054 10.7071 10.293C10.8946 10.4805 11 10.7349 11 11.0001V13.0001H13C13.2652 13.0001 13.5196 13.1054 13.7071 13.293C13.8946 13.4805 14 13.7349 14 14.0001C14 14.2653 13.8946 14.5196 13.7071 14.7072C13.5196 14.8947 13.2652 15.0001 13 15.0001ZM18.25 15.2501C18.0028 15.2501 17.7611 15.1768 17.5555 15.0394C17.35 14.9021 17.1897 14.7068 17.0951 14.4784C17.0005 14.25 16.9758 13.9987 17.024 13.7562C17.0722 13.5137 17.1913 13.291 17.3661 13.1162C17.5409 12.9414 17.7636 12.8223 18.0061 12.7741C18.2486 12.7259 18.4999 12.7506 18.7283 12.8452C18.9567 12.9398 19.152 13.1 19.2893 13.3056C19.4267 13.5112 19.5 13.7528 19.5 14.0001C19.5 14.3316 19.3683 14.6495 19.1339 14.884C18.8995 15.1184 18.5815 15.2501 18.25 15.2501ZM21 18.0001C20.7526 18.0001 20.5108 17.9267 20.3052 17.7892C20.0996 17.6517 19.9394 17.4563 19.8448 17.2277C19.7503 16.9991 19.7258 16.7476 19.7742 16.5051C19.8227 16.2625 19.9421 16.0398 20.1172 15.8651C20.2923 15.6904 20.5154 15.5716 20.758 15.5237C21.0007 15.4758 21.2522 15.501 21.4805 15.5961C21.7089 15.6912 21.9039 15.8519 22.0408 16.0579C22.1778 16.2639 22.2506 16.5058 22.25 16.7532C22.2492 17.0842 22.1171 17.4013 21.8828 17.6351C21.6484 17.8688 21.331 18.0001 21 18.0001ZM21 12.5001C20.7528 12.5001 20.5111 12.4268 20.3055 12.2894C20.1 12.1521 19.9397 11.9568 19.8451 11.7284C19.7505 11.5 19.7258 11.2487 19.774 11.0062C19.8222 10.7637 19.9413 10.541 20.1161 10.3662C20.2909 10.1914 20.5136 10.0723 20.7561 10.0241C20.9986 9.97586 21.2499 10.0006 21.4783 10.0952C21.7067 10.1898 21.902 10.35 22.0393 10.5556C22.1767 10.7612 22.25 11.0028 22.25 11.2501C22.25 11.5816 22.1183 11.8995 21.8839 12.134C21.6495 12.3684 21.3315 12.5001 21 12.5001ZM23.75 15.2501C23.5028 15.2501 23.2611 15.1768 23.0555 15.0394C22.85 14.9021 22.6897 14.7068 22.5951 14.4784C22.5005 14.25 22.4758 13.9987 22.524 13.7562C22.5722 13.5137 22.6913 13.291 22.8661 13.1162C23.0409 12.9414 23.2636 12.8223 23.5061 12.7741C23.7486 12.7259 23.9999 12.7506 24.2283 12.8452C24.4567 12.9398 24.652 13.1 24.7893 13.3056C24.9267 13.5112 25 13.7528 25 14.0001C25 14.3316 24.8683 14.6495 24.6339 14.884C24.3995 15.1184 24.0815 15.2501 23.75 15.2501Z" fill="black"/>
</svg>
