<svg width="32" height="32" viewBox="0 0 32 32" fill="none" xmlns="http://www.w3.org/2000/svg">
<path fill-rule="evenodd" clip-rule="evenodd" d="M12.032 3.7105C12.0978 3.41442 12.2626 3.14963 12.4992 2.95982C12.7358 2.77002 13.03 2.66656 13.3333 2.6665H18.6666C18.97 2.66656 19.2642 2.77002 19.5008 2.95982C19.7374 3.14963 19.9022 3.41442 19.968 3.7105L20.5546 6.35184C21.088 6.60517 21.5946 6.8985 22.0746 7.23184L24.6586 6.4185C24.948 6.32753 25.2597 6.33792 25.5424 6.44797C25.825 6.55802 26.0617 6.76115 26.2133 7.02384L28.88 11.6425C29.0317 11.9052 29.0893 12.2118 29.0432 12.5117C28.9972 12.8116 28.8502 13.0868 28.6266 13.2918L26.6306 15.1225C26.6788 15.7064 26.6788 16.2933 26.6306 16.8772L28.6266 18.7078C28.8502 18.9129 28.9972 19.1881 29.0432 19.488C29.0893 19.7878 29.0317 20.0944 28.88 20.3572L26.2133 24.9758C26.0617 25.2385 25.825 25.4417 25.5424 25.5517C25.2597 25.6618 24.948 25.6722 24.6586 25.5812L22.076 24.7678C21.596 25.1012 21.0893 25.3945 20.556 25.6478L19.9693 28.2878C19.9037 28.5844 19.7388 28.8497 19.5019 29.0397C19.2651 29.2298 18.9704 29.3334 18.6666 29.3332H13.3333C13.03 29.3331 12.7358 29.2297 12.4992 29.0399C12.2626 28.85 12.0978 28.5853 12.032 28.2892L11.4453 25.6478C10.912 25.3945 10.4053 25.1012 9.92531 24.7678L7.34131 25.5812C7.05197 25.6722 6.74025 25.6618 6.45761 25.5517C6.17496 25.4417 5.93829 25.2385 5.78665 24.9758L3.11998 20.3572C2.96827 20.0944 2.91068 19.7878 2.95674 19.488C3.0028 19.1881 3.14975 18.9129 3.37331 18.7078L5.36931 16.8772C5.32113 16.2933 5.32113 15.7064 5.36931 15.1225L3.37331 13.2932C3.14975 13.0881 3.0028 12.8129 2.95674 12.513C2.91068 12.2132 2.96827 11.9066 3.11998 11.6438L5.78665 7.02517C5.93829 6.76249 6.17496 6.55936 6.45761 6.4493C6.74025 6.33925 7.05197 6.32886 7.34131 6.41984L9.92398 7.23317C10.404 6.89984 10.9106 6.6065 11.444 6.35317L12.0306 3.71317L12.032 3.7105ZM16 19.9998C17.0608 19.9998 18.0783 19.5784 18.8284 18.8283C19.5786 18.0781 20 17.0607 20 15.9998C20 14.939 19.5786 13.9216 18.8284 13.1714C18.0783 12.4213 17.0608 11.9998 16 11.9998C14.9391 11.9998 13.9217 12.4213 13.1716 13.1714C12.4214 13.9216 12 14.939 12 15.9998C12 17.0607 12.4214 18.0781 13.1716 18.8283C13.9217 19.5784 14.9391 19.9998 16 19.9998Z" fill="black"/>
</svg>
